<?xml version="1.0"?>
<svg xmlns="http://www.w3.org/2000/svg" xmlns:xlink="http://www.w3.org/1999/xlink" version="1.1" id="Capa_1" x="0px" y="0px" viewBox="0 0 32 32" style="enable-background:new 0 0 32 32;" xml:space="preserve" width="32px" height="32px"><g transform="matrix(0.168822 0 0 0.168822 212.781 212.781)"><path style="fill:#EEF8FF;" d="M256,22.105C126.823,22.105,22.105,126.823,22.105,256S126.823,489.896,256,489.896  S489.896,385.177,489.896,256S385.177,22.105,256,22.105z" data-original="#EEF8FF" class=""/><path style="fill:#CCDFED;" d="M256,39.423c-8.327,0-16.539,0.487-24.621,1.401C339.396,53.05,423.336,144.715,423.336,256  s-83.94,202.95-191.956,215.176c8.082,0.915,16.294,1.401,24.621,1.401c119.612,0,216.577-96.965,216.577-216.577  S375.612,39.423,256,39.423z" data-original="#CCDFED" class=""/><path style="fill:#2C5871;" d="M174.209,113.403c0-9.199,8.324-17.523,21.466-17.523h88.055c55.637,0,99.445,26.723,99.445,98.569  v2.628c0,71.846-45.123,99.445-102.95,99.445H231.16v101.635c0,11.828-14.457,17.962-28.476,17.962  c-14.457,0-28.475-6.133-28.475-17.962V113.403z M231.16,145.822v106.017h49.065c28.475,0,45.999-16.209,45.999-50.38v-5.257  c0-34.171-17.523-50.38-45.999-50.38L231.16,145.822L231.16,145.822z" data-original="#2C5871"/><path style="fill:#FF4C4C;" d="M256,0C114.615,0,0,114.615,0,256s114.615,256,256,256s256-114.615,256-256S397.385,0,256,0z   M469.651,256c0,50.78-17.727,97.412-47.315,134.073L121.927,89.664C158.588,60.076,205.22,42.349,256,42.349  C373.996,42.349,469.651,138.004,469.651,256z M42.349,256c0-50.78,17.727-97.412,47.315-134.073l300.409,300.409  C353.412,451.924,306.78,469.651,256,469.651C138.004,469.651,42.349,373.996,42.349,256z" data-original="#FF4C4C"/><path style="fill:#F33A3A" d="M256,0c-8.157,0-16.22,0.399-24.182,1.145c90.611,8.491,167.488,64.2,205.783,142.278  C457.91,176.114,469.65,214.683,469.65,256s-11.737,79.887-32.048,112.575c-38.295,78.08-115.172,133.789-205.784,142.28  C239.78,511.602,247.843,512,256,512c141.385,0,256-114.615,256-256S397.385,0,256,0z" data-original="#F33A3A" class="active-path"/></g> </svg>
