<?xml version="1.0" ?><svg viewBox="0 0 64 64" xmlns="http://www.w3.org/2000/svg"><defs><style>.cls-1{fill:#933ec5;}.cls-2{fill:#ffda44;}.cls-3{fill:#d80027;}.cls-4{fill:#c2fb3b;}.cls-5{fill:#006df0;}.cls-6{fill:#ea348b;}.cls-7{fill:#231f20;}</style></defs><title/><g data-name="holiday-holiday-hotel-car park" id="holiday-holiday-hotel-car_park"><path class="cls-1" d="M56,48a2.966,2.966,0,0,1,.184-1H13a1,1,0,0,0-1,1v7a1,1,0,0,0,1,1h3.1a5,5,0,0,1,9.8,0H46.1a5,5,0,0,1,9.8,0H59a1,1,0,0,0,1-1V50.816A2.966,2.966,0,0,1,59,51,3,3,0,0,1,56,48Z"/><circle class="cls-2" cx="14" cy="10" r="3"/><circle class="cls-3" cx="51" cy="57" r="3"/><circle class="cls-2" cx="21" cy="57" r="3"/><path class="cls-3" d="M24,20V5a1,1,0,0,0-1-1H5A1,1,0,0,0,4,5V20a1,1,0,0,0,1,1H23A1,1,0,0,0,24,20ZM14,15a4.948,4.948,0,0,1-3-1.026V20H9V10a5,5,0,1,1,5,5Z"/><circle class="cls-4" cx="59" cy="48" r="1"/><path class="cls-5" d="M33,30H20.778a1,1,0,0,0-.993.884L18.125,45H33Z"/><path class="cls-6" d="M48.215,30.884A1,1,0,0,0,47.222,30H35V45H49.875Z"/><path class="cls-7" d="M59,45H51.889L50.2,30.649A3,3,0,0,0,47.222,28H20.778A3,3,0,0,0,17.8,30.649L16.111,45H15V23h8a3,3,0,0,0,3-3V5a3,3,0,0,0-3-3H5A3,3,0,0,0,2,5V20a3,3,0,0,0,3,3h8V45a3,3,0,0,0-3,3v7a3,3,0,0,0,3,3v4h2V58h1.1a5,5,0,0,0,9.8,0H46.1a5,5,0,0,0,9.8,0H59a3,3,0,0,0,3-3V48A3,3,0,0,0,59,45ZM4,20V5A1,1,0,0,1,5,4H23a1,1,0,0,1,1,1V20a1,1,0,0,1-1,1H5A1,1,0,0,1,4,20ZM60,48a1,1,0,1,1-1-1A1,1,0,0,1,60,48ZM48.215,30.884,49.875,45H35V30H47.222A1,1,0,0,1,48.215,30.884Zm-28.43,0A1,1,0,0,1,20.778,30H33V45H18.125ZM21,60a3,3,0,1,1,3-3A3,3,0,0,1,21,60Zm30,0a3,3,0,1,1,3-3A3,3,0,0,1,51,60Zm8-4H55.9a5,5,0,0,0-9.8,0H25.9a5,5,0,0,0-9.8,0H13a1,1,0,0,1-1-1V48a1,1,0,0,1,1-1H56.184A2.966,2.966,0,0,0,56,48a3,3,0,0,0,3,3,2.966,2.966,0,0,0,1-.184V55A1,1,0,0,1,59,56Z"/><path class="cls-7" d="M14,5a5.006,5.006,0,0,0-5,5V20h2V13.974A4.948,4.948,0,0,0,14,15,5,5,0,0,0,14,5Zm0,8a3,3,0,1,1,3-3A3,3,0,0,1,14,13Z"/></g></svg>