<?xml version="1.0" ?><!DOCTYPE svg  PUBLIC '-//W3C//DTD SVG 1.1//EN'  'http://www.w3.org/Graphics/SVG/1.1/DTD/svg11.dtd'><svg enable-background="new 0 0 128 128" id="Layer_1" version="1.1" viewBox="0 0 128 128" xml:space="preserve" xmlns="http://www.w3.org/2000/svg" xmlns:xlink="http://www.w3.org/1999/xlink"><circle cx="64" cy="64" fill="#4B5F83" id="circle" r="64"/><g id="icon"><path d="M95,85H33c-2.2,0-4-1.8-4-4V47c0-2.2,1.8-4,4-4h62c2.2,0,4,1.8,4,4v34C99,83.2,97.2,85,95,85z" fill="#22313F" id="base"/><circle cx="58" cy="64" fill="#E6E6E6" id="circle_4_" r="25"/><circle cx="58" cy="64" fill="#22A7F0" id="circle_2_" r="21"/><circle cx="58" cy="64" fill="#22313F" id="circle_1_" r="7.5"/><circle cx="92.7" cy="49.3" fill="#CF000F" id="red_light" r="2"/><polygon fill="#E6E6E6" id="button" points="89,41 89,39 87,39 87,41 85,41 85,43 91,43 91,41  "/></g></svg>