<?xml version="1.0" ?><!DOCTYPE svg  PUBLIC '-//W3C//DTD SVG 1.1//EN'  'http://www.w3.org/Graphics/SVG/1.1/DTD/svg11.dtd'><svg enable-background="new 0 0 128 128" id="Layer_1" version="1.1" viewBox="0 0 128 128" xml:space="preserve" xmlns="http://www.w3.org/2000/svg" xmlns:xlink="http://www.w3.org/1999/xlink"><circle cx="64" cy="64" fill="#4B5F83" id="circle" r="64"/><g id="icon"><polygon fill="#E6E6E6" id="triangle" points="93,80.8 76,64 93,47.2  "/><path d="M80.5,84h-42c-2.2,0-4-1.8-4-4V48c0-2.2,1.8-4,4-4h42c2.2,0,4,1.8,4,4v32   C84.5,82.2,82.7,84,80.5,84z" fill="#22313F" id="base"/><circle cx="78.6" cy="50.3" fill="#CF000F" id="red_light" r="2"/><path d="M66.5,66h-14c-1.1,0-2-0.9-2-2v0c0-1.1,0.9-2,2-2h14c1.1,0,2,0.9,2,2v0   C68.5,65.1,67.6,66,66.5,66z" fill="#E6E6E6" id="line"/></g></svg>